<svg xmlns="http://www.w3.org/2000/svg" viewBox="0 0 24 24" fill="none" stroke="#0ea5e9" stroke-width="2" stroke-linecap="round" stroke-linejoin="round">
  <!-- Satellite body -->
  <rect x="8" y="8" width="8" height="8" rx="1" ry="1"/>
  
  <!-- Solar panels -->
  <rect x="4" y="9" width="3" height="6" rx="0.5" ry="0.5"/>
  <rect x="17" y="9" width="3" height="6" rx="0.5" ry="0.5"/>
  
  <!-- Solar panel lines -->
  <line x1="4.5" y1="10" x2="6.5" y2="10"/>
  <line x1="4.5" y1="11.5" x2="6.5" y2="11.5"/>
  <line x1="4.5" y1="13" x2="6.5" y2="13"/>
  <line x1="17.5" y1="10" x2="19.5" y2="10"/>
  <line x1="17.5" y1="11.5" x2="19.5" y2="11.5"/>
  <line x1="17.5" y1="13" x2="19.5" y2="13"/>
  
  <!-- Antenna/Communication dish -->
  <circle cx="12" cy="6" r="1.5"/>
  <line x1="12" y1="7.5" x2="12" y2="8"/>
  
  <!-- Body details -->
  <circle cx="10" cy="10" r="0.5" fill="#0ea5e9"/>
  <circle cx="14" cy="14" r="0.5" fill="#0ea5e9"/>
  
  <!-- Signal waves -->
  <path d="M2 2l2 2"/>
  <path d="M2 6l4 4"/>
  <path d="M6 2l4 4"/>
  
  <!-- Earth signal -->
  <circle cx="20" cy="20" r="1" fill="none"/>
  <circle cx="20" cy="20" r="2" fill="none" opacity="0.5"/>
</svg>
